<?xml version="1.0" encoding="iso-8859-1"?>
<!-- Generator: Adobe Illustrator 16.0.0, SVG Export Plug-In . SVG Version: 6.00 Build 0)  -->
<!DOCTYPE svg PUBLIC "-//W3C//DTD SVG 1.1//EN" "http://www.w3.org/Graphics/SVG/1.1/DTD/svg11.dtd">
<svg version="1.1" id="Capa_1" xmlns="http://www.w3.org/2000/svg" xmlns:xlink="http://www.w3.org/1999/xlink" x="0px" y="0px"
	 width="575.191px" height="575.191px" viewBox="0 0 575.191 575.191" style="enable-background:new 0 0 575.191 575.191;"
	 xml:space="preserve">
<g>
	<g>
		<path d="M508.654,501.17H66.527c-23.143,0-41.971-18.828-41.971-41.971V196.99h526.079v262.207
			C550.636,482.342,531.803,501.17,508.654,501.17z M39.7,212.133v247.064c0,14.793,12.035,26.828,26.828,26.828h442.127
			c14.799,0,26.838-12.035,26.838-26.828V212.133H39.7z"/>
	</g>
	<g>
		<path d="M575.191,177.339H0v-61.348c0-23.142,18.828-41.97,41.971-41.97h491.25c23.143,0,41.971,18.828,41.971,41.97V177.339z
			 M15.143,162.196h544.906v-46.205c0-14.792-12.035-26.827-26.828-26.827H41.971c-14.793,0-26.828,12.035-26.828,26.827V162.196z"
			/>
	</g>
	<g>
		<path d="M384.161,464.965H191.03v-75.824h193.132L384.161,464.965L384.161,464.965z M206.172,449.822h162.845v-45.539H206.172
			V449.822z"/>
	</g>
</g>
<g>
</g>
<g>
</g>
<g>
</g>
<g>
</g>
<g>
</g>
<g>
</g>
<g>
</g>
<g>
</g>
<g>
</g>
<g>
</g>
<g>
</g>
<g>
</g>
<g>
</g>
<g>
</g>
<g>
</g>
</svg>
